<?xml version="1.0" encoding="UTF-8" standalone="no"?>
<!DOCTYPE svg PUBLIC "-//W3C//DTD SVG 1.1//EN"
 "http://www.w3.org/Graphics/SVG/1.1/DTD/svg11.dtd">
<!-- Generated by graphviz version 2.43.0 (0)
 -->
<!-- Pages: 1 -->
<svg width="1130pt" height="1053pt"
 viewBox="0.00 0.00 1129.91 1052.67" xmlns="http://www.w3.org/2000/svg" xmlns:xlink="http://www.w3.org/1999/xlink">
<g id="graph0" class="graph" transform="scale(1 1) rotate(0) translate(4 1048.67)">
<polygon fill="white" stroke="transparent" points="-4,4 -4,-1048.67 1125.91,-1048.67 1125.91,4 -4,4"/>
<!-- asciinema -->
<g id="node1" class="node">
<title>asciinema</title>
<ellipse fill="none" stroke="black" cx="362.25" cy="-774.33" rx="46.29" ry="18"/>
<text text-anchor="middle" x="362.25" y="-770.63" font-family="Times,serif" font-size="14.00">asciinema</text>
</g>
<!-- asciinema&#45;&gt;asciinema -->
<g id="edge1" class="edge">
<title>asciinema&#45;&gt;asciinema</title>
<path fill="none" stroke="black" d="M405.11,-781.04C417.15,-780.75 426.39,-778.51 426.39,-774.33 426.39,-771.45 422.02,-769.49 415.38,-768.45"/>
<polygon fill="black" stroke="black" points="415.36,-764.94 405.11,-767.61 414.79,-771.92 415.36,-764.94"/>
</g>
<!-- asciinema.recorder -->
<g id="node2" class="node">
<title>asciinema.recorder</title>
<ellipse fill="none" stroke="black" cx="389.62" cy="-502.87" rx="78" ry="18"/>
<text text-anchor="middle" x="389.62" y="-499.17" font-family="Times,serif" font-size="14.00">asciinema.recorder</text>
</g>
<!-- asciinema&#45;&gt;asciinema.recorder -->
<g id="edge2" class="edge">
<title>asciinema&#45;&gt;asciinema.recorder</title>
<path fill="none" stroke="black" d="M364.08,-756.09C368.76,-709.73 381.13,-587.07 386.75,-531.25"/>
<polygon fill="black" stroke="black" points="390.26,-531.33 387.79,-521.02 383.29,-530.62 390.26,-531.33"/>
</g>
<!-- asciinema.asciicast.v2 -->
<g id="node3" class="node">
<title>asciinema.asciicast.v2</title>
<ellipse fill="none" stroke="black" cx="167.38" cy="-659.68" rx="89.88" ry="18"/>
<text text-anchor="middle" x="167.38" y="-655.98" font-family="Times,serif" font-size="14.00">asciinema.asciicast.v2</text>
</g>
<!-- asciinema&#45;&gt;asciinema.asciicast.v2 -->
<g id="edge3" class="edge">
<title>asciinema&#45;&gt;asciinema.asciicast.v2</title>
<path fill="none" stroke="black" d="M336.37,-759.1C302.82,-739.37 244.06,-704.79 205.42,-682.07"/>
<polygon fill="black" stroke="black" points="206.94,-678.91 196.55,-676.84 203.38,-684.94 206.94,-678.91"/>
</g>
<!-- asciinema.asciicast.v1 -->
<g id="node4" class="node">
<title>asciinema.asciicast.v1</title>
<ellipse fill="none" stroke="black" cx="641.98" cy="-824.36" rx="89.88" ry="18"/>
<text text-anchor="middle" x="641.98" y="-820.66" font-family="Times,serif" font-size="14.00">asciinema.asciicast.v1</text>
</g>
<!-- asciinema&#45;&gt;asciinema.asciicast.v1 -->
<g id="edge4" class="edge">
<title>asciinema&#45;&gt;asciinema.asciicast.v1</title>
<path fill="none" stroke="black" d="M404.43,-781.87C446.78,-789.45 513.01,-801.29 564.79,-810.56"/>
<polygon fill="black" stroke="black" points="564.48,-814.06 574.94,-812.37 565.71,-807.17 564.48,-814.06"/>
</g>
<!-- asciinema.recorder&#45;&gt;asciinema.recorder -->
<g id="edge5" class="edge">
<title>asciinema.recorder&#45;&gt;asciinema.recorder</title>
<path fill="none" stroke="black" d="M462.86,-509.25C476.23,-508.44 485.61,-506.31 485.61,-502.87 485.61,-500.36 480.66,-498.56 472.82,-497.45"/>
<polygon fill="black" stroke="black" points="473.15,-493.97 462.86,-496.49 472.48,-500.94 473.15,-493.97"/>
</g>
<!-- asciinema.recorder&#45;&gt;asciinema.asciicast.v2 -->
<g id="edge6" class="edge">
<title>asciinema.recorder&#45;&gt;asciinema.asciicast.v2</title>
<path fill="none" stroke="black" d="M364.98,-520.25C324.85,-548.57 245.33,-604.68 200.37,-636.41"/>
<polygon fill="black" stroke="black" points="198.28,-633.6 192.12,-642.22 202.31,-639.33 198.28,-633.6"/>
</g>
<!-- asciinema.term -->
<g id="node5" class="node">
<title>asciinema.term</title>
<ellipse fill="none" stroke="black" cx="566.64" cy="-255.35" rx="65.79" ry="18"/>
<text text-anchor="middle" x="566.64" y="-251.65" font-family="Times,serif" font-size="14.00">asciinema.term</text>
</g>
<!-- asciinema.recorder&#45;&gt;asciinema.term -->
<g id="edge7" class="edge">
<title>asciinema.recorder&#45;&gt;asciinema.term</title>
<path fill="none" stroke="black" d="M402.35,-485.07C433.15,-442 511.81,-332.02 547.96,-281.48"/>
<polygon fill="black" stroke="black" points="550.82,-283.5 553.79,-273.32 545.13,-279.43 550.82,-283.5"/>
</g>
<!-- asciinema.async_worker -->
<g id="node6" class="node">
<title>asciinema.async_worker</title>
<ellipse fill="none" stroke="black" cx="98.14" cy="-394.88" rx="98.28" ry="18"/>
<text text-anchor="middle" x="98.14" y="-391.18" font-family="Times,serif" font-size="14.00">asciinema.async_worker</text>
</g>
<!-- asciinema.recorder&#45;&gt;asciinema.async_worker -->
<g id="edge8" class="edge">
<title>asciinema.recorder&#45;&gt;asciinema.async_worker</title>
<path fill="none" stroke="black" d="M358.02,-486.39C311.6,-466.46 223.97,-433.57 163.38,-412.99"/>
<polygon fill="black" stroke="black" points="164.49,-409.68 153.9,-409.8 162.26,-416.31 164.49,-409.68"/>
</g>
<!-- asciinema.notifier -->
<g id="node7" class="node">
<title>asciinema.notifier</title>
<ellipse fill="none" stroke="black" cx="234.05" cy="-270.92" rx="74.99" ry="18"/>
<text text-anchor="middle" x="234.05" y="-267.22" font-family="Times,serif" font-size="14.00">asciinema.notifier</text>
</g>
<!-- asciinema.recorder&#45;&gt;asciinema.notifier -->
<g id="edge9" class="edge">
<title>asciinema.recorder&#45;&gt;asciinema.notifier</title>
<path fill="none" stroke="black" d="M377.67,-485.05C350.46,-444.49 283.79,-345.09 251.77,-297.35"/>
<polygon fill="black" stroke="black" points="254.51,-295.16 246.04,-288.8 248.7,-299.06 254.51,-295.16"/>
</g>
<!-- asciinema.asciicast.v2&#45;&gt;asciinema.asciicast.v2 -->
<g id="edge10" class="edge">
<title>asciinema.asciicast.v2&#45;&gt;asciinema.asciicast.v2</title>
<path fill="none" stroke="black" d="M251.81,-665.93C265.6,-665.04 275.07,-662.95 275.07,-659.68 275.07,-657.28 269.96,-655.52 261.79,-654.4"/>
<polygon fill="black" stroke="black" points="262.1,-650.92 251.81,-653.44 261.43,-657.89 262.1,-650.92"/>
</g>
<!-- asciinema.asciicast.v1&#45;&gt;asciinema.asciicast.v1 -->
<g id="edge11" class="edge">
<title>asciinema.asciicast.v1&#45;&gt;asciinema.asciicast.v1</title>
<path fill="none" stroke="black" d="M726.41,-830.61C740.2,-829.72 749.67,-827.63 749.67,-824.36 749.67,-821.96 744.56,-820.2 736.39,-819.08"/>
<polygon fill="black" stroke="black" points="736.7,-815.6 726.41,-818.12 736.03,-822.57 736.7,-815.6"/>
</g>
<!-- asciinema.asciicast.events -->
<g id="node8" class="node">
<title>asciinema.asciicast.events</title>
<ellipse fill="none" stroke="black" cx="898.77" cy="-600.78" rx="103.5" ry="18"/>
<text text-anchor="middle" x="898.77" y="-597.08" font-family="Times,serif" font-size="14.00">asciinema.asciicast.events</text>
</g>
<!-- asciinema.asciicast.v1&#45;&gt;asciinema.asciicast.events -->
<g id="edge12" class="edge">
<title>asciinema.asciicast.v1&#45;&gt;asciinema.asciicast.events</title>
<path fill="none" stroke="black" d="M662.13,-806.82C707.68,-767.16 818.65,-670.54 870.81,-625.13"/>
<polygon fill="black" stroke="black" points="873.12,-627.76 878.36,-618.55 868.52,-622.49 873.12,-627.76"/>
</g>
<!-- asciinema.async_worker&#45;&gt;asciinema.recorder -->
<g id="edge13" class="edge">
<title>asciinema.async_worker&#45;&gt;asciinema.recorder</title>
<path fill="none" stroke="black" d="M131.14,-411.96C178.9,-432.36 268.09,-465.77 328.17,-486.04"/>
<polygon fill="black" stroke="black" points="327.32,-489.45 337.92,-489.3 329.54,-482.81 327.32,-489.45"/>
</g>
<!-- asciinema.notifier&#45;&gt;asciinema.notifier -->
<g id="edge14" class="edge">
<title>asciinema.notifier&#45;&gt;asciinema.notifier</title>
<path fill="none" stroke="black" d="M304.01,-277.35C317.36,-276.58 326.79,-274.44 326.79,-270.92 326.79,-268.39 321.92,-266.58 314.22,-265.47"/>
<polygon fill="black" stroke="black" points="314.3,-261.97 304.01,-264.49 313.63,-268.93 314.3,-261.97"/>
</g>
<!-- asciinema.__main__ -->
<g id="node9" class="node">
<title>asciinema.__main__</title>
<ellipse fill="none" stroke="black" cx="867.68" cy="-796.72" rx="84.5" ry="18"/>
<text text-anchor="middle" x="867.68" y="-793.02" font-family="Times,serif" font-size="14.00">asciinema.__main__</text>
</g>
<!-- asciinema.__main__&#45;&gt;asciinema.__main__ -->
<g id="edge15" class="edge">
<title>asciinema.__main__&#45;&gt;asciinema.__main__</title>
<path fill="none" stroke="black" d="M947.18,-803.02C960.76,-802.16 970.17,-800.06 970.17,-796.72 970.17,-794.29 965.2,-792.52 957.28,-791.4"/>
<polygon fill="black" stroke="black" points="957.47,-787.91 947.18,-790.42 956.79,-794.87 957.47,-787.91"/>
</g>
<!-- asciinema.config -->
<g id="node10" class="node">
<title>asciinema.config</title>
<ellipse fill="none" stroke="black" cx="1032.41" cy="-772.11" rx="71.5" ry="18"/>
<text text-anchor="middle" x="1032.41" y="-768.41" font-family="Times,serif" font-size="14.00">asciinema.config</text>
</g>
<!-- asciinema.__main__&#45;&gt;asciinema.config -->
<g id="edge16" class="edge">
<title>asciinema.__main__&#45;&gt;asciinema.config</title>
<path fill="none" stroke="black" d="M937.06,-786.35C944.83,-785.19 952.75,-784.01 960.54,-782.85"/>
<polygon fill="black" stroke="black" points="961.32,-786.28 970.69,-781.33 960.28,-779.35 961.32,-786.28"/>
</g>
<!-- asciinema.config&#45;&gt;asciinema.config -->
<g id="edge17" class="edge">
<title>asciinema.config&#45;&gt;asciinema.config</title>
<path fill="none" stroke="black" d="M1099.11,-778.58C1112.41,-777.85 1121.91,-775.69 1121.91,-772.11 1121.91,-769.53 1117.01,-767.69 1109.31,-766.59"/>
<polygon fill="black" stroke="black" points="1109.39,-763.09 1099.11,-765.64 1108.74,-770.06 1109.39,-763.09"/>
</g>
<!-- asciinema.pty -->
<g id="node11" class="node">
<title>asciinema.pty</title>
<ellipse fill="none" stroke="black" cx="590.91" cy="-18" rx="60" ry="18"/>
<text text-anchor="middle" x="590.91" y="-14.3" font-family="Times,serif" font-size="14.00">asciinema.pty</text>
</g>
<!-- asciinema.pty&#45;&gt;asciinema.term -->
<g id="edge18" class="edge">
<title>asciinema.pty&#45;&gt;asciinema.term</title>
<path fill="none" stroke="black" d="M589.05,-36.23C584.84,-77.39 574.58,-177.77 569.53,-227.07"/>
<polygon fill="black" stroke="black" points="566.04,-226.76 568.51,-237.06 573.01,-227.47 566.04,-226.76"/>
</g>
<!-- asciinema.pty&#45;&gt;asciinema.pty -->
<g id="edge19" class="edge">
<title>asciinema.pty&#45;&gt;asciinema.pty</title>
<path fill="none" stroke="black" d="M646.85,-24.59C659.47,-23.99 668.7,-21.8 668.7,-18 668.7,-15.33 664.14,-13.45 657.04,-12.37"/>
<polygon fill="black" stroke="black" points="657.13,-8.86 646.85,-11.42 656.48,-15.83 657.13,-8.86"/>
</g>
<!-- asciinema.urllib_http_adapter -->
<g id="node12" class="node">
<title>asciinema.urllib_http_adapter</title>
<ellipse fill="none" stroke="black" cx="638.15" cy="-452.61" rx="116.5" ry="18"/>
<text text-anchor="middle" x="638.15" y="-448.91" font-family="Times,serif" font-size="14.00">asciinema.urllib_http_adapter</text>
</g>
<!-- asciinema.urllib_http_adapter&#45;&gt;asciinema.urllib_http_adapter -->
<g id="edge20" class="edge">
<title>asciinema.urllib_http_adapter&#45;&gt;asciinema.urllib_http_adapter</title>
<path fill="none" stroke="black" d="M748.05,-458.58C762.73,-457.57 772.49,-455.58 772.49,-452.61 772.49,-450.38 767,-448.71 758.06,-447.58"/>
<polygon fill="black" stroke="black" points="758.33,-444.09 748.05,-446.64 757.68,-451.06 758.33,-444.09"/>
</g>
<!-- asciinema.api -->
<g id="node13" class="node">
<title>asciinema.api</title>
<ellipse fill="none" stroke="black" cx="726.03" cy="-730.49" rx="60" ry="18"/>
<text text-anchor="middle" x="726.03" y="-726.79" font-family="Times,serif" font-size="14.00">asciinema.api</text>
</g>
<!-- asciinema.api&#45;&gt;asciinema.api -->
<g id="edge21" class="edge">
<title>asciinema.api&#45;&gt;asciinema.api</title>
<path fill="none" stroke="black" d="M781.98,-737.07C794.6,-736.48 803.83,-734.28 803.83,-730.49 803.83,-727.82 799.26,-725.94 792.17,-724.85"/>
<polygon fill="black" stroke="black" points="792.26,-721.35 781.98,-723.9 791.61,-728.32 792.26,-721.35"/>
</g>
<!-- asciinema.commands.auth -->
<g id="node14" class="node">
<title>asciinema.commands.auth</title>
<ellipse fill="none" stroke="black" cx="485.27" cy="-678.81" rx="105.5" ry="18"/>
<text text-anchor="middle" x="485.27" y="-675.11" font-family="Times,serif" font-size="14.00">asciinema.commands.auth</text>
</g>
<!-- asciinema.commands.auth&#45;&gt;asciinema.api -->
<g id="edge22" class="edge">
<title>asciinema.commands.auth&#45;&gt;asciinema.api</title>
<path fill="none" stroke="black" d="M551.06,-692.93C587.3,-700.71 631.92,-710.29 667.03,-717.82"/>
<polygon fill="black" stroke="black" points="666.62,-721.32 677.13,-719.99 668.09,-714.47 666.62,-721.32"/>
</g>
<!-- asciinema.commands.command -->
<g id="node15" class="node">
<title>asciinema.commands.command</title>
<ellipse fill="none" stroke="black" cx="463.69" cy="-726.91" rx="126.18" ry="18"/>
<text text-anchor="middle" x="463.69" y="-723.21" font-family="Times,serif" font-size="14.00">asciinema.commands.command</text>
</g>
<!-- asciinema.commands.auth&#45;&gt;asciinema.commands.command -->
<g id="edge23" class="edge">
<title>asciinema.commands.auth&#45;&gt;asciinema.commands.command</title>
<path fill="none" stroke="black" d="M477.11,-696.99C476.73,-697.83 476.35,-698.68 475.97,-699.53"/>
<polygon fill="black" stroke="black" points="472.75,-698.15 471.86,-708.7 479.14,-701.01 472.75,-698.15"/>
</g>
<!-- asciinema.commands.command&#45;&gt;asciinema.api -->
<g id="edge24" class="edge">
<title>asciinema.commands.command&#45;&gt;asciinema.api</title>
<path fill="none" stroke="black" d="M589.48,-728.63C612.32,-728.94 635.37,-729.25 655.87,-729.53"/>
<polygon fill="black" stroke="black" points="655.98,-733.04 666.03,-729.67 656.08,-726.04 655.98,-733.04"/>
</g>
<!-- asciinema.commands.command&#45;&gt;asciinema.commands.command -->
<g id="edge25" class="edge">
<title>asciinema.commands.command&#45;&gt;asciinema.commands.command</title>
<path fill="none" stroke="black" d="M582.95,-732.79C597.93,-731.75 607.78,-729.79 607.78,-726.91 607.78,-724.75 602.24,-723.1 593.15,-721.98"/>
<polygon fill="black" stroke="black" points="593.23,-718.48 582.95,-721.03 592.58,-725.45 593.23,-718.48"/>
</g>
<!-- asciinema.commands.upload -->
<g id="node16" class="node">
<title>asciinema.commands.upload</title>
<ellipse fill="none" stroke="black" cx="775.94" cy="-530.45" rx="114.5" ry="18"/>
<text text-anchor="middle" x="775.94" y="-526.75" font-family="Times,serif" font-size="14.00">asciinema.commands.upload</text>
</g>
<!-- asciinema.commands.upload&#45;&gt;asciinema.api -->
<g id="edge26" class="edge">
<title>asciinema.commands.upload&#45;&gt;asciinema.api</title>
<path fill="none" stroke="black" d="M771.42,-548.55C762.69,-583.57 743.42,-660.81 733.02,-702.49"/>
<polygon fill="black" stroke="black" points="729.6,-701.73 730.58,-712.28 736.39,-703.43 729.6,-701.73"/>
</g>
<!-- asciinema.commands.upload&#45;&gt;asciinema.commands.command -->
<g id="edge27" class="edge">
<title>asciinema.commands.upload&#45;&gt;asciinema.commands.command</title>
<path fill="none" stroke="black" d="M747.95,-548.06C691.46,-583.6 563.78,-663.94 500.57,-703.71"/>
<polygon fill="black" stroke="black" points="498.33,-700.99 491.73,-709.27 502.06,-706.91 498.33,-700.99"/>
</g>
<!-- asciinema.commands.play -->
<g id="node17" class="node">
<title>asciinema.commands.play</title>
<ellipse fill="none" stroke="black" cx="200.48" cy="-945.68" rx="105.5" ry="18"/>
<text text-anchor="middle" x="200.48" y="-941.98" font-family="Times,serif" font-size="14.00">asciinema.commands.play</text>
</g>
<!-- asciinema.commands.play&#45;&gt;asciinema -->
<g id="edge28" class="edge">
<title>asciinema.commands.play&#45;&gt;asciinema</title>
<path fill="none" stroke="black" d="M217.49,-927.66C246.67,-896.75 306.32,-833.56 339.21,-798.73"/>
<polygon fill="black" stroke="black" points="341.87,-801.02 346.19,-791.34 336.78,-796.21 341.87,-801.02"/>
</g>
<!-- asciinema.commands.play&#45;&gt;asciinema.commands.command -->
<g id="edge29" class="edge">
<title>asciinema.commands.play&#45;&gt;asciinema.commands.command</title>
<path fill="none" stroke="black" d="M222.02,-927.78C269.08,-888.66 381.14,-795.52 434.49,-751.18"/>
<polygon fill="black" stroke="black" points="436.77,-753.84 442.22,-744.75 432.29,-748.46 436.77,-753.84"/>
</g>
<!-- asciinema.commands.cat -->
<g id="node18" class="node">
<title>asciinema.commands.cat</title>
<ellipse fill="none" stroke="black" cx="361.86" cy="-1026.67" rx="100.98" ry="18"/>
<text text-anchor="middle" x="361.86" y="-1022.97" font-family="Times,serif" font-size="14.00">asciinema.commands.cat</text>
</g>
<!-- asciinema.commands.cat&#45;&gt;asciinema -->
<g id="edge30" class="edge">
<title>asciinema.commands.cat&#45;&gt;asciinema</title>
<path fill="none" stroke="black" d="M361.89,-1008.57C361.96,-965.19 362.12,-855.27 362.2,-802.91"/>
<polygon fill="black" stroke="black" points="365.7,-802.66 362.22,-792.65 358.7,-802.65 365.7,-802.66"/>
</g>
<!-- asciinema.commands.cat&#45;&gt;asciinema.commands.command -->
<g id="edge31" class="edge">
<title>asciinema.commands.cat&#45;&gt;asciinema.commands.command</title>
<path fill="none" stroke="black" d="M368.08,-1008.37C385.31,-957.69 433.73,-815.12 454.28,-754.62"/>
<polygon fill="black" stroke="black" points="457.65,-755.57 457.56,-744.97 451.03,-753.32 457.65,-755.57"/>
</g>
<!-- asciinema.commands.record -->
<g id="node19" class="node">
<title>asciinema.commands.record</title>
<ellipse fill="none" stroke="black" cx="712.48" cy="-684.44" rx="112.5" ry="18"/>
<text text-anchor="middle" x="712.48" y="-680.74" font-family="Times,serif" font-size="14.00">asciinema.commands.record</text>
</g>
<!-- asciinema.commands.record&#45;&gt;asciinema.recorder -->
<g id="edge32" class="edge">
<title>asciinema.commands.record&#45;&gt;asciinema.recorder</title>
<path fill="none" stroke="black" d="M681.52,-667.03C622.4,-633.78 493.55,-561.32 428.64,-524.81"/>
<polygon fill="black" stroke="black" points="429.97,-521.55 419.54,-519.7 426.54,-527.65 429.97,-521.55"/>
</g>
<!-- asciinema.commands.record&#45;&gt;asciinema.api -->
<g id="edge33" class="edge">
<title>asciinema.commands.record&#45;&gt;asciinema.api</title>
<path fill="none" stroke="black" d="M717.84,-702.64C717.86,-702.74 717.89,-702.84 717.92,-702.94"/>
<polygon fill="black" stroke="black" points="714.53,-703.82 720.71,-712.42 721.24,-701.84 714.53,-703.82"/>
</g>
<!-- asciinema.commands.record&#45;&gt;asciinema.commands.command -->
<g id="edge34" class="edge">
<title>asciinema.commands.record&#45;&gt;asciinema.commands.command</title>
<path fill="none" stroke="black" d="M635.46,-697.59C609.9,-701.95 581.2,-706.85 554.69,-711.38"/>
<polygon fill="black" stroke="black" points="553.92,-707.96 544.65,-713.09 555.09,-714.87 553.92,-707.96"/>
</g>
<!-- asciinema.commands.record&#45;&gt;asciinema.commands.record -->
<g id="edge35" class="edge">
<title>asciinema.commands.record&#45;&gt;asciinema.commands.record</title>
<path fill="none" stroke="black" d="M818.68,-690.45C833.22,-689.45 842.92,-687.45 842.92,-684.44 842.92,-682.21 837.57,-680.53 828.87,-679.41"/>
<polygon fill="black" stroke="black" points="828.96,-675.91 818.68,-678.44 828.3,-682.88 828.96,-675.91"/>
</g>
<!-- asciinema.player -->
<g id="node20" class="node">
<title>asciinema.player</title>
<ellipse fill="none" stroke="black" cx="815.16" cy="-308.02" rx="71" ry="18"/>
<text text-anchor="middle" x="815.16" y="-304.32" font-family="Times,serif" font-size="14.00">asciinema.player</text>
</g>
<!-- asciinema.player&#45;&gt;asciinema.term -->
<g id="edge36" class="edge">
<title>asciinema.player&#45;&gt;asciinema.term</title>
<path fill="none" stroke="black" d="M760.62,-296.46C721.76,-288.23 669.46,-277.14 628.95,-268.56"/>
<polygon fill="black" stroke="black" points="629.44,-265.09 618.93,-266.43 627.98,-271.94 629.44,-265.09"/>
</g>
<!-- asciinema.player&#45;&gt;asciinema.asciicast.events -->
<g id="edge37" class="edge">
<title>asciinema.player&#45;&gt;asciinema.asciicast.events</title>
<path fill="none" stroke="black" d="M820.39,-326.33C834.55,-375.93 873.74,-513.11 890.73,-572.63"/>
<polygon fill="black" stroke="black" points="887.43,-573.83 893.55,-582.47 894.16,-571.9 887.43,-573.83"/>
</g>
<!-- asciinema.player&#45;&gt;asciinema.player -->
<g id="edge38" class="edge">
<title>asciinema.player&#45;&gt;asciinema.player</title>
<path fill="none" stroke="black" d="M881.41,-314.49C894.6,-313.76 904,-311.6 904,-308.02 904,-305.44 899.14,-303.6 891.52,-302.5"/>
<polygon fill="black" stroke="black" points="891.69,-299 881.41,-301.55 891.04,-305.97 891.69,-299"/>
</g>
<!-- setup -->
<g id="node21" class="node">
<title>setup</title>
<ellipse fill="none" stroke="black" cx="580.15" cy="-539.61" rx="29.5" ry="18"/>
<text text-anchor="middle" x="580.15" y="-535.91" font-family="Times,serif" font-size="14.00">setup</text>
</g>
<!-- tests.config_test -->
<g id="node22" class="node">
<title>tests.config_test</title>
<ellipse fill="none" stroke="black" cx="647.15" cy="-365.61" rx="67.69" ry="18"/>
<text text-anchor="middle" x="647.15" y="-361.91" font-family="Times,serif" font-size="14.00">tests.config_test</text>
</g>
<!-- tests.asciicast.v2_test -->
<g id="node23" class="node">
<title>tests.asciicast.v2_test</title>
<ellipse fill="none" stroke="black" cx="231.15" cy="-191.61" rx="86.5" ry="18"/>
<text text-anchor="middle" x="231.15" y="-187.91" font-family="Times,serif" font-size="14.00">tests.asciicast.v2_test</text>
</g>
<!-- tests.asciicast.__init__ -->
<g id="node24" class="node">
<title>tests.asciicast.__init__</title>
<ellipse fill="none" stroke="black" cx="699.15" cy="-916.61" rx="90.5" ry="18"/>
<text text-anchor="middle" x="699.15" y="-912.91" font-family="Times,serif" font-size="14.00">tests.asciicast.__init__</text>
</g>
<!-- tests.test_helper -->
<g id="node25" class="node">
<title>tests.test_helper</title>
<ellipse fill="none" stroke="black" cx="415.15" cy="-365.61" rx="67.69" ry="18"/>
<text text-anchor="middle" x="415.15" y="-361.91" font-family="Times,serif" font-size="14.00">tests.test_helper</text>
</g>
<!-- tests.pty_test -->
<g id="node26" class="node">
<title>tests.pty_test</title>
<ellipse fill="none" stroke="black" cx="404.15" cy="-278.61" rx="56.59" ry="18"/>
<text text-anchor="middle" x="404.15" y="-274.91" font-family="Times,serif" font-size="14.00">tests.pty_test</text>
</g>
<!-- tests.__init__ -->
<g id="node27" class="node">
<title>tests.__init__</title>
<ellipse fill="none" stroke="black" cx="203.15" cy="-829.61" rx="58" ry="18"/>
<text text-anchor="middle" x="203.15" y="-825.91" font-family="Times,serif" font-size="14.00">tests.__init__</text>
</g>
<!-- asciinema.asciicast.__init__ -->
<g id="node28" class="node">
<title>asciinema.asciicast.__init__</title>
<ellipse fill="none" stroke="black" cx="951.15" cy="-887.61" rx="110.5" ry="18"/>
<text text-anchor="middle" x="951.15" y="-883.91" font-family="Times,serif" font-size="14.00">asciinema.asciicast.__init__</text>
</g>
<!-- asciinema.asciicast.raw -->
<g id="node29" class="node">
<title>asciinema.asciicast.raw</title>
<ellipse fill="none" stroke="black" cx="732.15" cy="-133.61" rx="94.48" ry="18"/>
<text text-anchor="middle" x="732.15" y="-129.91" font-family="Times,serif" font-size="14.00">asciinema.asciicast.raw</text>
</g>
<!-- asciinema.http_adapter -->
<g id="node30" class="node">
<title>asciinema.http_adapter</title>
<ellipse fill="none" stroke="black" cx="963.15" cy="-133.61" rx="93" ry="18"/>
<text text-anchor="middle" x="963.15" y="-129.91" font-family="Times,serif" font-size="14.00">asciinema.http_adapter</text>
</g>
<!-- asciinema.__init__ -->
<g id="node31" class="node">
<title>asciinema.__init__</title>
<ellipse fill="none" stroke="black" cx="455.15" cy="-191.61" rx="78" ry="18"/>
<text text-anchor="middle" x="455.15" y="-187.91" font-family="Times,serif" font-size="14.00">asciinema.__init__</text>
</g>
<!-- asciinema.commands.__init__ -->
<g id="node32" class="node">
<title>asciinema.commands.__init__</title>
<ellipse fill="none" stroke="black" cx="786.15" cy="-220.61" rx="119.68" ry="18"/>
<text text-anchor="middle" x="786.15" y="-216.91" font-family="Times,serif" font-size="14.00">asciinema.commands.__init__</text>
</g>
</g>
</svg>
